<?xml version="1.0" encoding="UTF-8" standalone="no"?>
<svg
   xmlns:dc="http://purl.org/dc/elements/1.1/"
   xmlns:cc="http://creativecommons.org/ns#"
   xmlns:rdf="http://www.w3.org/1999/02/22-rdf-syntax-ns#"
   xmlns:svg="http://www.w3.org/2000/svg"
   xmlns="http://www.w3.org/2000/svg"
   xmlns:sodipodi="http://sodipodi.sourceforge.net/DTD/sodipodi-0.dtd"
   xmlns:inkscape="http://www.inkscape.org/namespaces/inkscape"
   viewBox="0 0 16 16"
   version="1.1"
   width="32"
   height="32"
   id="svg2"
   inkscape:version="0.91 r13725"
   sodipodi:docname="bubble.svg">
  <metadata
     id="metadata11">
    <rdf:RDF>
      <cc:Work
         rdf:about="">
        <dc:format>image/svg+xml</dc:format>
        <dc:type
           rdf:resource="http://purl.org/dc/dcmitype/StillImage" />
        <dc:title></dc:title>
      </cc:Work>
    </rdf:RDF>
  </metadata>
  <defs
     id="defs9" />
  <sodipodi:namedview
     pagecolor="#ffffff"
     bordercolor="#666666"
     borderopacity="1"
     objecttolerance="10"
     gridtolerance="10"
     guidetolerance="10"
     inkscape:pageopacity="0"
     inkscape:pageshadow="2"
     inkscape:window-width="3000"
     inkscape:window-height="1792"
     id="namedview7"
     showgrid="false"
     inkscape:zoom="5.2149125"
     inkscape:cx="-8.0393132"
     inkscape:cy="32"
     inkscape:window-x="0"
     inkscape:window-y="32"
     inkscape:window-maximized="0"
     inkscape:current-layer="svg2" />
  <g
     id="surface1"
     transform="matrix(0.53359625,0,0,0.57737505,-0.50463962,-1.1989178)"
     style="fill:#ffffff;stroke:#ffffff">
    <path
       d="M 16,3 C 12.210938,3 8.765625,4.113281 6.21875,5.976563 3.667969,7.835938 2,10.507813 2,13.5 c 0,3.628906 2.472656,6.699219 6,8.550781 L 8,29 14.746094,23.9375 C 15.15625,23.96875 15.570313,24 16,24 19.789063,24 23.234375,22.886719 25.78125,21.027344 28.332031,19.164063 30,16.492188 30,13.5 30,10.507813 28.332031,7.835938 25.78125,5.976563 23.234375,4.113281 19.789063,3 16,3 Z m 0,2 c 3.390625,0 6.445313,1.015625 8.601563,2.589844 C 26.757813,9.164063 28,11.246094 28,13.5 28,15.753906 26.757813,17.835938 24.601563,19.410156 22.445313,20.984375 19.390625,22 16,22 15.507813,22 15.015625,21.97266 14.523438,21.92578 L 14.140625,21.894531 10,25 10,20.859375 9.421875,20.59375 C 6.070313,19.019531 4,16.386719 4,13.5 4,11.246094 5.242188,9.164063 7.398438,7.589844 9.554688,6.015625 12.609375,5 16,5 Z"
       id="path5"
       inkscape:connector-curvature="0"
       style="fill:#ffffff;stroke:#ffffff" />
  </g>
</svg>
